HIERARCHY
ROOT hip
{
	OFFSET 0.000000 0.000000 0.000000
	CHANNELS 6 Xposition Yposition Zposition Zrotation Yrotation Xrotation 
	JOINT lhipjoint
	{
		OFFSET 0.000000 0.000000 0.000000
		CHANNELS 3 Zrotation Yrotation Xrotation
		JOINT lfemur
		{
			OFFSET 1.363060 -1.794630 0.839290
			CHANNELS 3 Zrotation Yrotation Xrotation
			JOINT ltibia
			{
				OFFSET 2.448110 -6.726130 0.000000
				CHANNELS 3 Zrotation Yrotation Xrotation
				JOINT lfoot
				{
					OFFSET 2.562200 -7.039590 0.000000
					CHANNELS 3 Zrotation Yrotation Xrotation
					JOINT ltoes
					{
						OFFSET 0.157640 -0.433110 2.322550
						CHANNELS 3 Zrotation Yrotation Xrotation
						End Site
						{
							OFFSET 0.000000 0.000000 0.000000
						}
					}
				}
			}
		}
	}
	JOINT rhipjoint
	{
		OFFSET 0.000000 0.000000 0.000000
		CHANNELS 3 Zrotation Yrotation Xrotation
		JOINT rfemur
		{
			OFFSET -1.305520 -1.794630 0.839290
			CHANNELS 3 Zrotation Yrotation Xrotation
			JOINT rtibia
			{
				OFFSET -2.542530 -6.985550 0.000000
				CHANNELS 3 Zrotation Yrotation Xrotation
				JOINT rfoot
				{
					OFFSET -2.568260 -7.056230 0.000000
					CHANNELS 3 Zrotation Yrotation Xrotation
					JOINT rtoes
					{
						OFFSET -0.164730 -0.452590 2.363150
						CHANNELS 3 Zrotation Yrotation Xrotation
						End Site
						{
							OFFSET 0.000000 0.000000 0.000000
						}
					}
				}
			}
		}
	}
	JOINT lowerback
	{
		OFFSET 0.000000 0.000000 0.000000
		CHANNELS 3 Zrotation Yrotation Xrotation
		JOINT upperback
		{
			OFFSET 0.028270 2.035590 -0.193380
			CHANNELS 3 Zrotation Yrotation Xrotation
			JOINT thorax
			{
				OFFSET 0.056720 2.048850 -0.042750
				CHANNELS 3 Zrotation Yrotation Xrotation
				JOINT lowerneck
				{
					OFFSET 0.000000 0.000000 0.000000
					CHANNELS 3 Zrotation Yrotation Xrotation
					JOINT upperneck
					{
						OFFSET -0.054170 1.746240 0.172020
						CHANNELS 3 Zrotation Yrotation Xrotation
						JOINT head
						{
							OFFSET 0.104070 1.761360 -0.123970
							CHANNELS 3 Zrotation Yrotation Xrotation
							End Site
							{
								OFFSET 0.000000 0.000000 0.000000
							}
						}
					}
				}
				JOINT lclavicle
				{
					OFFSET 0.000000 0.000000 0.000000
					CHANNELS 3 Zrotation Yrotation Xrotation
					JOINT lhumerus
					{
						OFFSET 3.362410 1.200890 -0.311210
						CHANNELS 3 Zrotation Yrotation Xrotation
						JOINT lradius
						{
							OFFSET 4.983000 -0.000000 -0.000000
							CHANNELS 3 Zrotation Yrotation Xrotation
							JOINT lwrist
							{
								OFFSET 3.483560 -0.000000 -0.000000
								CHANNELS 3 Zrotation Yrotation Xrotation
								JOINT lhand
								{
									OFFSET 0.000000 0.000000 0.000000
									CHANNELS 3 Zrotation Yrotation Xrotation
									JOINT lfingers
									{
										OFFSET 0.715260 -0.000000 -0.000000
										CHANNELS 3 Zrotation Yrotation Xrotation
										End Site
										{
											OFFSET 0.000000 0.000000 0.000000
										}
									}
								}
								JOINT lthumb
								{
									OFFSET 0.000000 0.000000 0.000000
									CHANNELS 3 Zrotation Yrotation Xrotation
									End Site
									{
										OFFSET 0.000000 0.000000 0.000000
									}
								}
							}
						}
					}
				}
				JOINT rclavicle
				{
					OFFSET 0.000000 0.000000 0.000000
					CHANNELS 3 Zrotation Yrotation Xrotation
					JOINT rhumerus
					{
						OFFSET -3.136600 1.374050 -0.404650
						CHANNELS 3 Zrotation Yrotation Xrotation
						JOINT rradius
						{
							OFFSET -5.241900 -0.000000 -0.000000
							CHANNELS 3 Zrotation Yrotation Xrotation
							JOINT rwrist
							{
								OFFSET -3.444170 -0.000000 -0.000000
								CHANNELS 3 Zrotation Yrotation Xrotation
								JOINT rhand
								{
									OFFSET 0.000000 0.000000 0.000000
									CHANNELS 3 Zrotation Yrotation Xrotation
									JOINT rfingers
									{
										OFFSET -0.622530 -0.000000 -0.000000
										CHANNELS 3 Zrotation Yrotation Xrotation
										End Site
										{
											OFFSET 0.000000 0.000000 0.000000
										}
									}
								}
								JOINT rthumb
								{
									OFFSET 0.000000 0.000000 0.000000
									CHANNELS 3 Zrotation Yrotation Xrotation
									End Site
									{
										OFFSET 0.000000 0.000000 0.000000
									}
								}
							}
						}
					}
				}
			}
		}
	}
}
MOTION
Frames: 11
Frame Time: 0.008333
-0.435081 16.715552 1.075386 -151.166030 -28.241425 130.356838 -7.244369 -5.982989 -3.327303 9.030703 -0.567602 36.558768 1.395513 12.738030 26.648604 -0.090318 -15.720766 0.894778 0.444000 4.275300 11.852400 11.058912 0.576978 2.174798 -23.116275 -0.355869 -58.304892 -6.350175 -11.285242 44.482148 0.077812 2.925370 1.763967 -0.434700 4.231100 -11.727800 0.086810 1.530071 24.870849 1.378202 -2.204154 0.632253 -3.174018 -1.872650 18.397126 -10.588747 -3.400821 -6.365949 25.035164 -13.282486 22.222951 7.632600 -6.550000 5.525300 -7.690135 -1.496004 13.239106 64.325406 -87.766653 -77.876144 23.445309 -41.060018 -8.290284 -0.140760 1.040932 37.709360 59.862933 -15.771536 -27.264500 -7.125000 0.000000 0.000000 19.926400 -0.136500 -21.304300 9.959252 0.008929 2.049295 55.605671 -31.529792 29.730824 -23.369230 42.529298 -8.054828 0.046297 -1.216927 -19.076809 -10.251245 13.663308 -2.564500 7.125000 0.000000 0.000000 11.933300 -15.120700 8.598800 
-0.426302 16.680079 1.027461 -151.508843 -28.433045 130.483752 -7.190676 -5.968990 -3.331030 8.395240 -0.937337 36.383377 1.552663 13.038260 27.575696 -0.115365 -15.993104 0.898658 0.575600 4.858600 13.505600 10.976661 0.613136 2.144069 -23.117746 0.073254 -58.321051 -7.091391 -11.965929 47.621951 0.052735 2.847223 2.151222 -0.292900 3.480400 -9.619300 -0.433551 1.617497 24.404514 1.293246 -2.123316 0.626814 -3.203592 -1.804808 18.825554 -11.021428 -3.525491 -7.038519 25.012344 -13.185678 21.832851 7.726200 -6.488800 5.558600 -7.727859 -1.373833 13.857927 67.701492 -87.309051 -80.336268 24.666826 -42.019528 -8.887743 -0.117599 1.044616 37.775405 59.620044 -15.537160 -26.759800 -7.125000 0.000000 0.000000 19.843900 0.337100 -21.032700 9.920379 -0.028301 1.775515 56.553428 -33.425851 29.837789 -23.952354 43.158980 -8.337739 0.072098 -1.266104 -18.769706 -10.772305 13.402208 -2.670400 7.125000 0.000000 0.000000 11.577500 -15.284900 8.289400 
-0.415105 16.640575 0.983389 -151.922191 -28.748736 130.644641 -7.141472 -5.963259 -3.337387 7.679849 -1.224111 36.166808 1.709104 13.319911 28.453197 -0.144965 -16.313593 0.800967 0.680100 5.272900 14.688700 10.936452 0.658920 2.120505 -23.163045 0.228014 -58.354922 -7.800850 -12.583769 50.592577 -0.004563 3.265339 2.366028 -0.213900 2.977700 -8.216700 -1.044451 1.727192 24.011040 1.207069 -2.033644 0.634618 -3.194631 -1.755762 19.266534 -11.432054 -3.673399 -7.672635 25.041834 -13.118254 21.328552 7.830700 -6.447400 5.555300 -7.762165 -1.245897 14.525594 70.923629 -86.685165 -82.568278 25.969519 -43.022383 -9.541830 -0.091299 1.038949 37.678553 59.441830 -15.643597 -26.754600 -7.125000 0.000000 0.000000 19.694700 0.255200 -20.882500 9.885106 -0.075759 1.476111 57.538811 -35.209431 29.865157 -24.417973 43.673223 -8.564044 0.107094 -1.318124 -18.442047 -11.405702 12.939646 -2.767200 7.125000 0.000000 0.000000 11.142100 -15.635800 7.879100 
-0.403729 16.603848 0.946752 -152.333142 -29.145360 130.783506 -7.101313 -5.965306 -3.345217 6.993099 -1.401074 35.944388 1.850005 13.561779 29.213313 -0.178683 -16.682317 0.593559 0.742000 5.502800 15.348300 10.923871 0.711089 2.101115 -23.184063 0.145600 -58.348212 -8.467066 -13.136542 53.340252 -0.078198 4.000647 2.574024 -0.196900 2.857600 -7.882600 -1.677469 1.829160 23.709239 1.136114 -1.963989 0.658456 -3.111326 -1.742921 19.721796 -11.873923 -3.842304 -8.308000 25.102984 -13.074728 20.759531 7.949200 -6.419000 5.542100 -7.792695 -1.112063 15.212692 73.877199 -85.937081 -84.630113 27.299459 -44.026939 -10.234613 -0.064821 1.022167 37.530383 59.397531 -15.925484 -27.082200 -7.125000 0.000000 0.000000 19.566400 -0.161100 -20.876500 9.860021 -0.138660 1.162560 58.464654 -36.817386 29.886175 -24.740394 44.052515 -8.718544 0.147433 -1.364975 -18.304165 -11.991107 12.373569 -2.822500 7.125000 0.000000 0.000000 10.736600 -16.099300 7.472100 
-0.393338 16.574735 0.919430 -152.610516 -29.488573 130.872367 -7.070493 -5.975948 -3.353002 6.564522 -1.459973 35.721990 1.958780 13.745042 29.795896 -0.215860 -17.085116 0.354306 0.759800 5.566900 15.532800 10.905685 0.754489 2.083843 -23.007238 -0.018436 -58.275441 -9.083964 -13.615643 55.810141 -0.160786 4.996229 2.646680 -0.315600 3.611600 -9.986400 -2.131830 1.905000 23.458695 1.081062 -1.910736 0.692583 -3.042874 -1.716799 20.193389 -12.259602 -4.035732 -8.950333 25.158405 -13.066478 20.171131 8.054400 -6.409300 5.521300 -7.811890 -0.925765 16.011006 76.961300 -85.038086 -86.849566 28.718628 -45.036947 -10.993012 -0.033950 0.987132 37.179205 59.404603 -16.465227 -27.755200 -7.125000 0.000000 0.000000 19.386200 -0.970300 -20.940600 9.837745 -0.210098 0.813076 59.395119 -38.262322 29.929468 -24.861325 44.267434 -8.768112 0.188904 -1.406779 -18.371809 -12.479549 11.785160 -2.837700 7.125000 0.000000 0.000000 10.396500 -16.599700 7.112200 
-0.382409 16.552162 0.899992 -152.795158 -29.679417 131.014548 -7.038506 -5.985819 -3.357947 6.428775 -1.379880 35.445364 2.029730 13.868658 30.190269 -0.252118 -17.470128 0.107527 0.754600 5.548100 15.478800 10.854052 0.772073 2.069305 -22.618164 -0.004876 -58.190809 -9.647766 -14.001828 57.963043 -0.237537 6.041446 2.594943 -0.564700 4.813200 -13.376500 -2.394368 1.974484 23.173754 1.042104 -1.831687 0.736595 -2.953678 -1.653707 20.705214 -12.622815 -4.269976 -9.716955 25.179760 -13.118379 19.678666 8.139000 -6.420600 5.555100 -7.812180 -0.651295 16.959263 80.311960 -83.973826 -89.408990 30.223184 -46.003351 -11.814169 0.000767 0.922262 36.757130 59.550518 -16.982933 -28.470900 -7.125000 0.000000 0.000000 19.281600 -1.780600 -21.088400 9.819915 -0.304033 0.416336 60.285091 -39.464672 29.998669 -24.688788 44.251219 -8.668884 0.220701 -1.438951 -18.669859 -12.851397 11.400892 -2.855300 7.125000 0.000000 0.000000 10.139000 -16.918700 6.858600 
-0.370495 16.536485 0.888347 -152.904566 -29.769797 131.190392 -7.000835 -5.995543 -3.362264 6.478887 -1.207667 35.130866 2.070861 13.944028 30.433149 -0.285438 -17.825199 -0.195466 0.709400 5.383000 15.004200 10.768356 0.766825 2.053659 -22.065239 0.211016 -58.006433 -10.141788 -14.306443 59.770609 -0.297093 6.880863 2.358046 -0.906100 6.065900 -16.975800 -2.512898 2.049855 22.884844 1.008598 -1.728818 0.805688 -2.848835 -1.557723 21.237497 -12.933018 -4.532767 -10.589365 25.184593 -13.212223 19.226909 8.204900 -6.446300 5.617200 -7.791335 -0.279568 18.031688 83.869103 -82.766456 -92.198457 31.775139 -46.847299 -12.668672 0.039026 0.811035 36.200271 59.790549 -17.424531 -29.087400 -7.125000 0.000000 0.000000 19.244700 -2.445900 -21.264700 9.806507 -0.433074 -0.025564 61.140225 -40.410599 30.149441 -24.233785 44.019150 -8.427505 0.246562 -1.461143 -19.042030 -13.117467 11.096597 -2.858200 7.125000 0.000000 0.000000 9.955400 -17.177400 6.673400 
-0.359298 16.525467 0.883509 -153.002832 -29.910721 131.392929 -6.958368 -6.009398 -3.369637 6.477481 -1.023347 34.810651 2.095746 13.984262 30.571485 -0.311754 -18.126687 -0.587031 0.632400 5.088200 14.160400 10.679834 0.756497 2.034660 -21.528032 0.459323 -57.669671 -10.541108 -14.550615 61.209430 -0.340266 7.494490 2.008261 -1.242800 7.068800 -19.919300 -2.630559 2.119588 22.633012 0.968698 -1.647238 0.915523 -2.710223 -1.471069 21.707170 -13.216561 -4.766869 -11.414719 25.242356 -13.287724 18.696556 8.291300 -6.470500 5.638800 -7.754992 0.137955 19.046531 87.371103 -81.634768 -95.040190 33.311847 -47.471931 -13.518429 0.084455 0.643436 35.660497 60.009485 -17.752654 -29.420100 -7.125000 0.000000 0.000000 19.226400 -2.804000 -21.359900 9.796780 -0.611324 -0.470796 61.934900 -41.124825 30.324399 -23.565290 43.625587 -8.086434 0.269609 -1.469298 -19.182321 -13.207234 10.751721 -2.808100 7.125000 0.000000 0.000000 9.889100 -17.503500 6.555800 
-0.346667 16.514001 0.881091 -153.058926 -30.073710 131.610172 -6.912471 -6.029721 -3.382806 6.471691 -0.867709 34.477436 2.113292 14.006520 30.660198 -0.330741 -18.386732 -1.105330 0.527600 4.654800 12.926600 10.587975 0.742997 2.010164 -20.960985 0.704009 -57.230668 -10.842614 -14.741225 62.273670 -0.372410 7.958607 1.543706 -1.526100 7.800000 -22.108100 -2.723425 2.197959 22.410821 0.920432 -1.563989 1.085029 -2.517006 -1.383287 21.973920 -13.498935 -4.961407 -12.149267 25.420528 -13.380255 18.147783 8.427500 -6.509300 5.655800 -7.697469 0.556339 19.724681 91.003809 -81.019848 -98.055992 34.891725 -47.711330 -14.373195 0.151314 0.403755 35.131183 60.215984 -18.008240 -29.508600 -7.125000 0.000000 0.000000 19.210600 -2.906200 -21.373600 9.795318 -0.838374 -0.870393 62.729126 -41.725337 30.440600 -22.689726 43.086134 -7.661109 0.290281 -1.465060 -18.997801 -13.175496 10.391664 -2.726100 7.125000 0.000000 0.000000 9.901300 -17.865400 6.484100 
-0.332872 16.502087 0.878851 -153.089475 -30.220195 131.827131 -6.855063 -6.055781 -3.409537 6.471386 -0.724609 34.168841 2.127938 14.021633 30.729711 -0.344894 -18.622242 -1.637094 0.431000 4.213200 11.677300 10.489936 0.731914 1.971143 -20.305417 0.943126 -56.687633 -11.048073 -14.887940 62.974340 -0.401756 8.332427 0.686448 -1.885400 8.623100 -24.623400 -2.833745 2.283079 22.268407 0.845337 -1.495792 1.345009 -2.250251 -1.313863 21.608398 -13.690118 -5.054507 -12.573804 25.638496 -13.471682 17.766558 8.574300 -6.548600 5.680600 -7.626177 0.866285 19.261154 95.828982 -82.156849 -102.080841 36.723685 -46.954584 -15.273781 0.287049 0.071800 34.565026 60.487991 -18.182940 -29.428700 -7.125000 0.000000 0.000000 19.202400 -2.828300 -21.337900 9.822558 -1.113335 -1.043378 63.321723 -42.451435 30.752980 -21.652512 42.480797 -7.194233 0.312026 -1.436935 -18.619390 -13.031075 10.096318 -2.632300 7.125000 0.000000 0.000000 9.982600 -18.191500 6.466100 
-0.318182 16.488830 0.878314 -153.100309 -30.314002 132.080615 -6.767103 -6.075956 -3.468655 6.429127 -0.640618 33.860436 2.144495 14.046543 30.818569 -0.345382 -18.754943 -2.224525 0.353300 3.818700 10.567100 10.391008 0.745673 1.896465 -19.566549 1.215569 -56.054110 -11.161908 -14.993050 63.324767 -0.430447 8.558564 -0.466309 -2.239000 9.347100 -26.887200 -2.925798 2.302305 22.280587 0.727098 -1.509122 1.539051 -2.119834 -1.328417 19.480752 -13.802399 -4.905003 -11.769757 25.878643 -13.578451 17.864759 8.740700 -6.599300 5.732600 -7.548435 0.254279 15.040017 104.910320 -88.840130 -108.806229 39.802513 -44.181437 -16.610670 0.610769 -0.174066 33.715563 60.880278 -17.838080 -29.227300 -7.125000 0.000000 0.000000 19.234100 -2.598400 -21.301900 9.799109 -1.135593 -0.301549 63.899971 -43.760991 31.080704 -20.309830 41.666259 -6.640272 0.333307 -1.389156 -18.084693 -12.756236 9.951496 -2.543300 7.125000 0.000000 0.000000 10.145900 -18.393100 6.529300 
